<svg width="13" height="10" viewBox="0 0 13 10" fill="none" xmlns="http://www.w3.org/2000/svg">
<path fill-rule="evenodd" clip-rule="evenodd" d="M4.90022 0.146447C5.09548 0.341709 5.09548 0.658291 4.90022 0.853553L1.20711 4.54667L4.90022 8.23978C5.09548 8.43504 5.09548 8.75162 4.90022 8.94689C4.70496 9.14215 4.38838 9.14215 4.19311 8.94689L0.146447 4.90022C0.0526784 4.80645 0 4.67928 0 4.54667C0 4.41406 0.0526784 4.28688 0.146447 4.19311L4.19311 0.146447C4.38838 -0.0488155 4.70496 -0.0488155 4.90022 0.146447Z" fill="white"/>
<path fill-rule="evenodd" clip-rule="evenodd" d="M0.113281 4.54688C0.113281 4.27073 0.337139 4.04688 0.613281 4.04688H11.8333C12.1094 4.04688 12.3333 4.27073 12.3333 4.54688C12.3333 4.82302 12.1094 5.04688 11.8333 5.04688H0.613281C0.337139 5.04688 0.113281 4.82302 0.113281 4.54688Z" fill="white"/>
</svg>
