<svg width="16" height="16" viewBox="0 0 16 16" fill="none" xmlns="http://www.w3.org/2000/svg">
<path fill-rule="evenodd" clip-rule="evenodd" d="M3.59957 9.26616C3.79483 9.0709 4.11142 9.0709 4.30668 9.26616L7.99979 12.9593L11.6929 9.26616C11.8882 9.0709 12.2048 9.0709 12.4 9.26616C12.5953 9.46142 12.5953 9.778 12.4 9.97326L8.35335 14.0199C8.25958 14.1137 8.1324 14.1664 7.99979 14.1664C7.86718 14.1664 7.74001 14.1137 7.64624 14.0199L3.59957 9.97326C3.40431 9.778 3.40431 9.46142 3.59957 9.26616Z" fill="#0080A8"/>
<path fill-rule="evenodd" clip-rule="evenodd" d="M8 1.83325C8.27614 1.83325 8.5 2.05711 8.5 2.33325V13.5533C8.5 13.8294 8.27614 14.0533 8 14.0533C7.72386 14.0533 7.5 13.8294 7.5 13.5533V2.33325C7.5 2.05711 7.72386 1.83325 8 1.83325Z" fill="#0080A8"/>
</svg>
