<svg width="16" height="16" viewBox="0 0 16 16" fill="none" xmlns="http://www.w3.org/2000/svg">
<path fill-rule="evenodd" clip-rule="evenodd" d="M9.2664 3.59957C9.46166 3.40431 9.77825 3.40431 9.97351 3.59957L14.0202 7.64624C14.1139 7.74001 14.1666 7.86718 14.1666 7.99979C14.1666 8.1324 14.1139 8.25958 14.0202 8.35335L9.97351 12.4C9.77825 12.5953 9.46166 12.5953 9.2664 12.4C9.07114 12.2047 9.07114 11.8882 9.2664 11.6929L12.9595 7.99979L9.2664 4.30668C9.07114 4.11142 9.07114 3.79483 9.2664 3.59957Z" fill="white"/>
<path fill-rule="evenodd" clip-rule="evenodd" d="M1.8335 8C1.8335 7.72386 2.05735 7.5 2.3335 7.5H13.5535C13.8296 7.5 14.0535 7.72386 14.0535 8C14.0535 8.27614 13.8296 8.5 13.5535 8.5H2.3335C2.05735 8.5 1.8335 8.27614 1.8335 8Z" fill="white"/>
</svg>
