<svg width="16" height="16" viewBox="0 0 16 16" fill="none" xmlns="http://www.w3.org/2000/svg">
<path fill-rule="evenodd" clip-rule="evenodd" d="M5.33333 0.833252C5.60948 0.833252 5.83333 1.05711 5.83333 1.33325V3.33325C5.83333 3.60939 5.60948 3.83325 5.33333 3.83325C5.05719 3.83325 4.83333 3.60939 4.83333 3.33325V1.33325C4.83333 1.05711 5.05719 0.833252 5.33333 0.833252Z" fill="#8099B3"/>
<path fill-rule="evenodd" clip-rule="evenodd" d="M10.6667 0.833252C10.9428 0.833252 11.1667 1.05711 11.1667 1.33325V3.33325C11.1667 3.60939 10.9428 3.83325 10.6667 3.83325C10.3905 3.83325 10.1667 3.60939 10.1667 3.33325V1.33325C10.1667 1.05711 10.3905 0.833252 10.6667 0.833252Z" fill="#8099B3"/>
<path fill-rule="evenodd" clip-rule="evenodd" d="M1.83333 6.05992C1.83333 5.78377 2.05719 5.55992 2.33333 5.55992H13.6667C13.9428 5.55992 14.1667 5.78377 14.1667 6.05992C14.1667 6.33606 13.9428 6.55992 13.6667 6.55992H2.33333C2.05719 6.55992 1.83333 6.33606 1.83333 6.05992Z" fill="#8099B3"/>
<path fill-rule="evenodd" clip-rule="evenodd" d="M3.15806 3.59014C2.73091 4.05015 2.5 4.74323 2.5 5.66659V11.3333C2.5 12.2566 2.73091 12.9497 3.15806 13.4097C3.57899 13.863 4.26197 14.1666 5.33333 14.1666H10.6667C11.738 14.1666 12.421 13.863 12.8419 13.4097C13.2691 12.9497 13.5 12.2566 13.5 11.3333V5.66659C13.5 4.74323 13.2691 4.05015 12.8419 3.59014C12.421 3.13684 11.738 2.83325 10.6667 2.83325H5.33333C4.26197 2.83325 3.57899 3.13684 3.15806 3.59014ZM2.42527 2.90969C3.08768 2.19633 4.07137 1.83325 5.33333 1.83325H10.6667C11.9286 1.83325 12.9123 2.19633 13.5747 2.90969C14.2309 3.61635 14.5 4.58994 14.5 5.66659V11.3333C14.5 12.4099 14.2309 13.3835 13.5747 14.0901C12.9123 14.8035 11.9286 15.1666 10.6667 15.1666H5.33333C4.07137 15.1666 3.08768 14.8035 2.42527 14.0901C1.76909 13.3835 1.5 12.4099 1.5 11.3333V5.66659C1.5 4.58994 1.76909 3.61635 2.42527 2.90969Z" fill="#8099B3"/>
<path fill-rule="evenodd" clip-rule="evenodd" d="M9.79647 9.13326C9.79647 8.76507 10.0949 8.46659 10.4631 8.46659H10.4691C10.8373 8.46659 11.1358 8.76507 11.1358 9.13326C11.1358 9.50145 10.8373 9.79993 10.4691 9.79993H10.4631C10.0949 9.79993 9.79647 9.50145 9.79647 9.13326Z" fill="#8099B3"/>
<path fill-rule="evenodd" clip-rule="evenodd" d="M9.79647 11.1333C9.79647 10.7651 10.0949 10.4666 10.4631 10.4666H10.4691C10.8373 10.4666 11.1358 10.7651 11.1358 11.1333C11.1358 11.5015 10.8373 11.7999 10.4691 11.7999H10.4631C10.0949 11.7999 9.79647 11.5015 9.79647 11.1333Z" fill="#8099B3"/>
<path fill-rule="evenodd" clip-rule="evenodd" d="M7.33032 9.13326C7.33032 8.76507 7.6288 8.46659 7.99699 8.46659H8.00298C8.37117 8.46659 8.66964 8.76507 8.66964 9.13326C8.66964 9.50145 8.37117 9.79993 8.00298 9.79993H7.99699C7.6288 9.79993 7.33032 9.50145 7.33032 9.13326Z" fill="#8099B3"/>
<path fill-rule="evenodd" clip-rule="evenodd" d="M7.33032 11.1333C7.33032 10.7651 7.6288 10.4666 7.99699 10.4666H8.00298C8.37117 10.4666 8.66964 10.7651 8.66964 11.1333C8.66964 11.5015 8.37117 11.7999 8.00298 11.7999H7.99699C7.6288 11.7999 7.33032 11.5015 7.33032 11.1333Z" fill="#8099B3"/>
<path fill-rule="evenodd" clip-rule="evenodd" d="M4.86287 9.13326C4.86287 8.76507 5.16135 8.46659 5.52954 8.46659H5.53553C5.90372 8.46659 6.2022 8.76507 6.2022 9.13326C6.2022 9.50145 5.90372 9.79993 5.53553 9.79993H5.52954C5.16135 9.79993 4.86287 9.50145 4.86287 9.13326Z" fill="#8099B3"/>
<path fill-rule="evenodd" clip-rule="evenodd" d="M4.86287 11.1333C4.86287 10.7651 5.16135 10.4666 5.52954 10.4666H5.53553C5.90372 10.4666 6.2022 10.7651 6.2022 11.1333C6.2022 11.5015 5.90372 11.7999 5.53553 11.7999H5.52954C5.16135 11.7999 4.86287 11.5015 4.86287 11.1333Z" fill="#8099B3"/>
<path fill-rule="evenodd" clip-rule="evenodd" d="M5.33333 0.833252C5.60948 0.833252 5.83333 1.05711 5.83333 1.33325V3.33325C5.83333 3.60939 5.60948 3.83325 5.33333 3.83325C5.05719 3.83325 4.83333 3.60939 4.83333 3.33325V1.33325C4.83333 1.05711 5.05719 0.833252 5.33333 0.833252Z" fill="#8099B3"/>
<path fill-rule="evenodd" clip-rule="evenodd" d="M10.6667 0.833252C10.9428 0.833252 11.1667 1.05711 11.1667 1.33325V3.33325C11.1667 3.60939 10.9428 3.83325 10.6667 3.83325C10.3905 3.83325 10.1667 3.60939 10.1667 3.33325V1.33325C10.1667 1.05711 10.3905 0.833252 10.6667 0.833252Z" fill="#8099B3"/>
<path fill-rule="evenodd" clip-rule="evenodd" d="M1.83333 6.05992C1.83333 5.78377 2.05719 5.55992 2.33333 5.55992H13.6667C13.9428 5.55992 14.1667 5.78377 14.1667 6.05992C14.1667 6.33606 13.9428 6.55992 13.6667 6.55992H2.33333C2.05719 6.55992 1.83333 6.33606 1.83333 6.05992Z" fill="#8099B3"/>
<path fill-rule="evenodd" clip-rule="evenodd" d="M3.15806 3.59014C2.73091 4.05015 2.5 4.74323 2.5 5.66659V11.3333C2.5 12.2566 2.73091 12.9497 3.15806 13.4097C3.57899 13.863 4.26197 14.1666 5.33333 14.1666H10.6667C11.738 14.1666 12.421 13.863 12.8419 13.4097C13.2691 12.9497 13.5 12.2566 13.5 11.3333V5.66659C13.5 4.74323 13.2691 4.05015 12.8419 3.59014C12.421 3.13684 11.738 2.83325 10.6667 2.83325H5.33333C4.26197 2.83325 3.57899 3.13684 3.15806 3.59014ZM2.42527 2.90969C3.08768 2.19633 4.07137 1.83325 5.33333 1.83325H10.6667C11.9286 1.83325 12.9123 2.19633 13.5747 2.90969C14.2309 3.61635 14.5 4.58994 14.5 5.66659V11.3333C14.5 12.4099 14.2309 13.3835 13.5747 14.0901C12.9123 14.8035 11.9286 15.1666 10.6667 15.1666H5.33333C4.07137 15.1666 3.08768 14.8035 2.42527 14.0901C1.76909 13.3835 1.5 12.4099 1.5 11.3333V5.66659C1.5 4.58994 1.76909 3.61635 2.42527 2.90969Z" fill="#8099B3"/>
<path fill-rule="evenodd" clip-rule="evenodd" d="M9.79647 9.13326C9.79647 8.76507 10.0949 8.46659 10.4631 8.46659H10.4691C10.8373 8.46659 11.1358 8.76507 11.1358 9.13326C11.1358 9.50145 10.8373 9.79993 10.4691 9.79993H10.4631C10.0949 9.79993 9.79647 9.50145 9.79647 9.13326Z" fill="#8099B3"/>
<path fill-rule="evenodd" clip-rule="evenodd" d="M9.79647 11.1333C9.79647 10.7651 10.0949 10.4666 10.4631 10.4666H10.4691C10.8373 10.4666 11.1358 10.7651 11.1358 11.1333C11.1358 11.5015 10.8373 11.7999 10.4691 11.7999H10.4631C10.0949 11.7999 9.79647 11.5015 9.79647 11.1333Z" fill="#8099B3"/>
<path fill-rule="evenodd" clip-rule="evenodd" d="M7.33032 9.13326C7.33032 8.76507 7.6288 8.46659 7.99699 8.46659H8.00298C8.37117 8.46659 8.66964 8.76507 8.66964 9.13326C8.66964 9.50145 8.37117 9.79993 8.00298 9.79993H7.99699C7.6288 9.79993 7.33032 9.50145 7.33032 9.13326Z" fill="#8099B3"/>
<path fill-rule="evenodd" clip-rule="evenodd" d="M7.33032 11.1333C7.33032 10.7651 7.6288 10.4666 7.99699 10.4666H8.00298C8.37117 10.4666 8.66964 10.7651 8.66964 11.1333C8.66964 11.5015 8.37117 11.7999 8.00298 11.7999H7.99699C7.6288 11.7999 7.33032 11.5015 7.33032 11.1333Z" fill="#8099B3"/>
<path fill-rule="evenodd" clip-rule="evenodd" d="M4.86287 9.13326C4.86287 8.76507 5.16135 8.46659 5.52954 8.46659H5.53553C5.90372 8.46659 6.2022 8.76507 6.2022 9.13326C6.2022 9.50145 5.90372 9.79993 5.53553 9.79993H5.52954C5.16135 9.79993 4.86287 9.50145 4.86287 9.13326Z" fill="#8099B3"/>
<path fill-rule="evenodd" clip-rule="evenodd" d="M4.86287 11.1333C4.86287 10.7651 5.16135 10.4666 5.52954 10.4666H5.53553C5.90372 10.4666 6.2022 10.7651 6.2022 11.1333C6.2022 11.5015 5.90372 11.7999 5.53553 11.7999H5.52954C5.16135 11.7999 4.86287 11.5015 4.86287 11.1333Z" fill="#8099B3"/>
</svg>
