<svg width="16" height="16" viewBox="0 0 16 16" fill="none" xmlns="http://www.w3.org/2000/svg">
<path fill-rule="evenodd" clip-rule="evenodd" d="M7.99967 1.83325C4.59582 1.83325 1.83301 4.59606 1.83301 7.99992C1.83301 11.4038 4.59582 14.1666 7.99967 14.1666C11.4035 14.1666 14.1663 11.4038 14.1663 7.99992C14.1663 4.59606 11.4035 1.83325 7.99967 1.83325ZM0.833008 7.99992C0.833008 4.04378 4.04353 0.833252 7.99967 0.833252C11.9558 0.833252 15.1663 4.04378 15.1663 7.99992C15.1663 11.9561 11.9558 15.1666 7.99967 15.1666C4.04353 15.1666 0.833008 11.9561 0.833008 7.99992Z" fill="#8099B3"/>
<path fill-rule="evenodd" clip-rule="evenodd" d="M7.75293 4.50643C8.02907 4.50643 8.25293 4.73029 8.25293 5.00643V7.73976C8.25293 7.84213 8.29202 7.9905 8.37893 8.1429C8.46586 8.29534 8.5736 8.40439 8.66116 8.45628L8.66249 8.45707L10.7292 9.69041C10.9663 9.83192 11.0438 10.1389 10.9023 10.376C10.7608 10.6131 10.4538 10.6906 10.2167 10.5491L8.15136 9.31658C8.15113 9.31644 8.1509 9.3163 8.15067 9.31616C7.87856 9.1547 7.65987 8.90063 7.51026 8.63829C7.36051 8.37569 7.25293 8.0574 7.25293 7.73976V5.00643C7.25293 4.73029 7.47679 4.50643 7.75293 4.50643Z" fill="#8099B3"/>
</svg>
