<svg width="16" height="16" viewBox="0 0 16 16" fill="none" xmlns="http://www.w3.org/2000/svg">
<path fill-rule="evenodd" clip-rule="evenodd" d="M2.44489 6.44489C2.05954 6.83025 1.83301 7.48232 1.83301 8.59967V11.3997C1.83301 12.517 2.05954 13.1691 2.44489 13.5545C2.83025 13.9398 3.48232 14.1663 4.59967 14.1663H7.39967C8.51703 14.1663 9.1691 13.9398 9.55445 13.5545C9.93981 13.1691 10.1663 12.517 10.1663 11.3997V8.59967C10.1663 7.48232 9.93981 6.83025 9.55445 6.44489C9.1691 6.05954 8.51703 5.83301 7.39967 5.83301H4.59967C3.48232 5.83301 2.83025 6.05954 2.44489 6.44489ZM1.73779 5.73779C2.40243 5.07314 3.38369 4.83301 4.59967 4.83301H7.39967C8.61566 4.83301 9.59692 5.07314 10.2616 5.73779C10.9262 6.40243 11.1663 7.38369 11.1663 8.59967V11.3997C11.1663 12.6157 10.9262 13.5969 10.2616 14.2616C9.59692 14.9262 8.61566 15.1663 7.39967 15.1663H4.59967C3.38369 15.1663 2.40243 14.9262 1.73779 14.2616C1.07314 13.5969 0.833008 12.6157 0.833008 11.3997V8.59967C0.833008 7.38369 1.07314 6.40243 1.73779 5.73779Z" fill="#8099B3"/>
<path fill-rule="evenodd" clip-rule="evenodd" d="M6.44489 2.44489C6.05954 2.83025 5.83301 3.48232 5.83301 4.59967V4.83301H7.39967C8.61566 4.83301 9.59692 5.07314 10.2616 5.73779C10.9262 6.40243 11.1663 7.38369 11.1663 8.59967V10.1663H11.3997C12.517 10.1663 13.1691 9.93981 13.5545 9.55445C13.9398 9.1691 14.1663 8.51703 14.1663 7.39967V4.59967C14.1663 3.48232 13.9398 2.83025 13.5545 2.44489C13.1691 2.05954 12.517 1.83301 11.3997 1.83301H8.59967C7.48232 1.83301 6.83025 2.05954 6.44489 2.44489ZM5.73779 1.73779C6.40243 1.07314 7.38369 0.833008 8.59967 0.833008H11.3997C12.6157 0.833008 13.5969 1.07314 14.2616 1.73779C14.9262 2.40243 15.1663 3.38369 15.1663 4.59967V7.39967C15.1663 8.61566 14.9262 9.59692 14.2616 10.2616C13.5969 10.9262 12.6157 11.1663 11.3997 11.1663H10.6663C10.3902 11.1663 10.1663 10.9425 10.1663 10.6663V8.59967C10.1663 7.48232 9.93981 6.83025 9.55445 6.44489C9.1691 6.05954 8.51703 5.83301 7.39967 5.83301H5.33301C5.05687 5.83301 4.83301 5.60915 4.83301 5.33301V4.59967C4.83301 3.38369 5.07314 2.40243 5.73779 1.73779Z" fill="#8099B3"/>
</svg>
