<svg width="20" height="20" viewBox="0 0 20 20" fill="none" xmlns="http://www.w3.org/2000/svg">
<path fill-rule="evenodd" clip-rule="evenodd" d="M3.05685 8.05636C2.57516 8.53805 2.29199 9.35315 2.29199 10.7498V14.2498C2.29199 15.6465 2.57516 16.4616 3.05685 16.9433C3.53854 17.425 4.35364 17.7082 5.75033 17.7082H9.25033C10.647 17.7082 11.4621 17.425 11.9438 16.9433C12.4255 16.4616 12.7087 15.6465 12.7087 14.2498V10.7498C12.7087 9.35315 12.4255 8.53805 11.9438 8.05636C11.4621 7.57467 10.647 7.2915 9.25033 7.2915H5.75033C4.35364 7.2915 3.53854 7.57467 3.05685 8.05636ZM2.17297 7.17248C3.00377 6.34167 4.23035 6.0415 5.75033 6.0415H9.25033C10.7703 6.0415 11.9969 6.34167 12.8277 7.17248C13.6585 8.00329 13.9587 9.22986 13.9587 10.7498V14.2498C13.9587 15.7698 13.6585 16.9964 12.8277 17.8272C11.9969 18.658 10.7703 18.9582 9.25033 18.9582H5.75033C4.23035 18.9582 3.00377 18.658 2.17297 17.8272C1.34216 16.9964 1.04199 15.7698 1.04199 14.2498V10.7498C1.04199 9.22986 1.34216 8.00329 2.17297 7.17248Z" fill="white"/>
<path fill-rule="evenodd" clip-rule="evenodd" d="M8.05685 3.05636C7.57516 3.53805 7.29199 4.35315 7.29199 5.74984V6.0415H9.25033C10.7703 6.0415 11.9969 6.34167 12.8277 7.17248C13.6585 8.00329 13.9587 9.22986 13.9587 10.7498V12.7082H14.2503C15.647 12.7082 16.4621 12.425 16.9438 11.9433C17.4255 11.4616 17.7087 10.6465 17.7087 9.24984V5.74984C17.7087 4.35315 17.4255 3.53805 16.9438 3.05636C16.4621 2.57467 15.647 2.2915 14.2503 2.2915H10.7503C9.35364 2.2915 8.53854 2.57467 8.05685 3.05636ZM7.17297 2.17248C8.00377 1.34167 9.23035 1.0415 10.7503 1.0415H14.2503C15.7703 1.0415 16.9969 1.34167 17.8277 2.17248C18.6585 3.00329 18.9587 4.22986 18.9587 5.74984V9.24984C18.9587 10.7698 18.6585 11.9964 17.8277 12.8272C16.9969 13.658 15.7703 13.9582 14.2503 13.9582H13.3337C12.9885 13.9582 12.7087 13.6783 12.7087 13.3332V10.7498C12.7087 9.35315 12.4255 8.53805 11.9438 8.05636C11.4621 7.57467 10.647 7.2915 9.25033 7.2915H6.66699C6.32181 7.2915 6.04199 7.01168 6.04199 6.6665V5.74984C6.04199 4.22986 6.34216 3.00329 7.17297 2.17248Z" fill="white"/>
</svg>
