<svg width="16" height="16" viewBox="0 0 16 16" fill="none" xmlns="http://www.w3.org/2000/svg">
<path fill-rule="evenodd" clip-rule="evenodd" d="M8 1.5C8.27614 1.5 8.5 1.72386 8.5 2V8.79289L10.9798 6.31311C11.175 6.11785 11.4916 6.11785 11.6869 6.31311C11.8821 6.50838 11.8821 6.82496 11.6869 7.02022L8.35355 10.3536C8.15829 10.5488 7.84171 10.5488 7.64645 10.3536L4.31311 7.02022C4.11785 6.82496 4.11785 6.50838 4.31311 6.31311C4.50838 6.11785 4.82496 6.11785 5.02022 6.31311L7.5 8.79289V2C7.5 1.72386 7.72386 1.5 8 1.5ZM2 9.5C2.27614 9.5 2.5 9.72386 2.5 10V12.6667C2.5 12.8877 2.5878 13.0996 2.74408 13.2559C2.90036 13.4122 3.11232 13.5 3.33333 13.5H12.6667C12.8877 13.5 13.0996 13.4122 13.2559 13.2559C13.4122 13.0996 13.5 12.8877 13.5 12.6667V10C13.5 9.72386 13.7239 9.5 14 9.5C14.2761 9.5 14.5 9.72386 14.5 10V12.6667C14.5 13.1529 14.3068 13.6192 13.963 13.963C13.6192 14.3068 13.1529 14.5 12.6667 14.5H3.33333C2.8471 14.5 2.38079 14.3068 2.03697 13.963C1.69315 13.6192 1.5 13.1529 1.5 12.6667V10C1.5 9.72386 1.72386 9.5 2 9.5Z" fill="#0080A8"/>
<path fill-rule="evenodd" clip-rule="evenodd" d="M8 1.5C8.27614 1.5 8.5 1.72386 8.5 2V8.79289L10.9798 6.31311C11.175 6.11785 11.4916 6.11785 11.6869 6.31311C11.8821 6.50838 11.8821 6.82496 11.6869 7.02022L8.35355 10.3536C8.15829 10.5488 7.84171 10.5488 7.64645 10.3536L4.31311 7.02022C4.11785 6.82496 4.11785 6.50838 4.31311 6.31311C4.50838 6.11785 4.82496 6.11785 5.02022 6.31311L7.5 8.79289V2C7.5 1.72386 7.72386 1.5 8 1.5ZM2 9.5C2.27614 9.5 2.5 9.72386 2.5 10V12.6667C2.5 12.8877 2.5878 13.0996 2.74408 13.2559C2.90036 13.4122 3.11232 13.5 3.33333 13.5H12.6667C12.8877 13.5 13.0996 13.4122 13.2559 13.2559C13.4122 13.0996 13.5 12.8877 13.5 12.6667V10C13.5 9.72386 13.7239 9.5 14 9.5C14.2761 9.5 14.5 9.72386 14.5 10V12.6667C14.5 13.1529 14.3068 13.6192 13.963 13.963C13.6192 14.3068 13.1529 14.5 12.6667 14.5H3.33333C2.8471 14.5 2.38079 14.3068 2.03697 13.963C1.69315 13.6192 1.5 13.1529 1.5 12.6667V10C1.5 9.72386 1.72386 9.5 2 9.5Z" fill="#0080A8"/>
</svg>
