<svg width="20" height="20" viewBox="0 0 20 20" fill="none" xmlns="http://www.w3.org/2000/svg">
<path fill-rule="evenodd" clip-rule="evenodd" d="M12.9313 1.1982C13.9036 1.07387 14.8873 1.47147 15.8868 2.41193L15.888 2.41301C16.8908 3.36142 17.3474 4.3235 17.2789 5.3034C17.2127 6.25028 16.6638 7.0517 16.0378 7.713M16.0378 7.713L9.19955 14.9511C9.00677 15.161 8.7472 15.3388 8.50112 15.4704C8.25187 15.6036 7.96357 15.7177 7.69291 15.7658L7.68875 15.7665L5.00637 16.2247C4.3559 16.3368 3.73215 16.1743 3.28782 15.7529C2.84411 15.3321 2.64803 14.7185 2.72067 14.0648L2.72088 14.0629L3.03055 11.3512C3.06652 11.0814 3.1667 10.7895 3.28479 10.5363C3.40245 10.284 3.563 10.0164 3.75298 9.81419L3.7542 9.8129L10.5959 2.57123C11.2221 1.90967 11.9918 1.31835 12.9313 1.1982M11.5041 3.43012L4.66404 10.67C4.59574 10.7429 4.5019 10.884 4.41766 11.0646C4.33494 11.242 4.28526 11.4061 4.27036 11.5115L3.96303 14.2028L3.96293 14.2037C3.92751 14.5244 4.0272 14.7314 4.14796 14.8459C4.26821 14.9599 4.47779 15.0474 4.79399 14.9929L4.79495 14.9927L7.47587 14.5348C7.58027 14.5159 7.74112 14.4593 7.91175 14.368C8.08473 14.2755 8.21486 14.1758 8.28 14.1044L8.28747 14.0962L15.1292 6.85456C15.6864 6.26594 15.996 5.72956 16.0319 5.21624C16.0655 4.73586 15.868 4.11481 15.0298 3.32186C14.1962 2.5377 13.5675 2.37703 13.0899 2.43811C12.5795 2.50337 12.061 2.84189 11.5041 3.43012Z" fill="white"/>
<path fill-rule="evenodd" clip-rule="evenodd" d="M9.81192 3.59079C10.153 3.53765 10.4725 3.77107 10.5257 4.11213C10.84 6.12931 12.4771 7.67315 14.5124 7.87815C14.8559 7.91275 15.1062 8.2192 15.0716 8.56264C15.0371 8.90608 14.7306 9.15645 14.3872 9.12186C11.7892 8.8602 9.69298 6.88737 9.29058 4.30455C9.23744 3.96349 9.47085 3.64393 9.81192 3.59079Z" fill="white"/>
<path fill-rule="evenodd" clip-rule="evenodd" d="M1.875 18.3334C1.875 17.9882 2.15482 17.7084 2.5 17.7084H17.5C17.8452 17.7084 18.125 17.9882 18.125 18.3334C18.125 18.6786 17.8452 18.9584 17.5 18.9584H2.5C2.15482 18.9584 1.875 18.6786 1.875 18.3334Z" fill="white"/>
</svg>
