<svg width="16" height="16" viewBox="0 0 16 16" fill="none" xmlns="http://www.w3.org/2000/svg">
<path fill-rule="evenodd" clip-rule="evenodd" d="M10.3451 0.95866C11.1229 0.859196 11.9098 1.17727 12.7094 1.92964L12.7104 1.93051C13.5127 2.68923 13.8779 3.4589 13.8231 4.24282C13.7701 5.00032 13.331 5.64146 12.8303 6.1705M12.8303 6.1705L7.35964 11.961C7.20542 12.1289 6.99776 12.2711 6.80089 12.3764C6.6015 12.483 6.37086 12.5742 6.15433 12.6127L6.151 12.6133L4.0051 12.9799C3.48472 13.0696 2.98572 12.9395 2.63025 12.6024C2.27528 12.2658 2.11843 11.7749 2.17654 11.2519L2.17671 11.2504L2.42444 9.08103C2.45322 8.86523 2.53336 8.63171 2.62783 8.42913C2.72196 8.22728 2.8504 8.01325 3.00239 7.85145L3.00336 7.85042L8.4767 2.05708C8.97772 1.52783 9.59341 1.05478 10.3451 0.95866M9.20325 2.74419L3.73124 8.53613C3.67659 8.59444 3.60152 8.70726 3.53413 8.85178C3.46795 8.99368 3.42821 9.12495 3.41629 9.20933L3.17042 11.3623L3.17034 11.363C3.14201 11.6196 3.22176 11.7852 3.31837 11.8768C3.41457 11.9681 3.58223 12.038 3.83519 11.9944L3.83596 11.9943L5.9807 11.6279C6.06422 11.6128 6.19289 11.5675 6.3294 11.4945C6.46779 11.4205 6.57189 11.3407 6.624 11.2836L6.62997 11.277L12.1034 5.48375C12.5491 5.01285 12.7968 4.58375 12.8255 4.17309C12.8524 3.78878 12.6944 3.29194 12.0238 2.65758C11.3569 2.03026 10.854 1.90172 10.4719 1.95058C10.0636 2.00279 9.6488 2.27361 9.20325 2.74419Z" fill="#0080A8"/>
<path fill-rule="evenodd" clip-rule="evenodd" d="M7.84953 2.87273C8.12238 2.83022 8.37803 3.01695 8.42054 3.2898C8.67196 4.90355 9.98164 6.13862 11.6099 6.30262C11.8847 6.33029 12.085 6.57546 12.0573 6.85021C12.0296 7.12496 11.7845 7.32526 11.5097 7.29759C9.43136 7.08826 7.75438 5.50999 7.43246 3.44374C7.38995 3.17089 7.57668 2.91524 7.84953 2.87273Z" fill="#0080A8"/>
<path fill-rule="evenodd" clip-rule="evenodd" d="M1.5 14.6668C1.5 14.3907 1.72386 14.1668 2 14.1668H14C14.2761 14.1668 14.5 14.3907 14.5 14.6668C14.5 14.943 14.2761 15.1668 14 15.1668H2C1.72386 15.1668 1.5 14.943 1.5 14.6668Z" fill="#0080A8"/>
</svg>
