<svg width="16" height="16" viewBox="0 0 16 16" fill="none" xmlns="http://www.w3.org/2000/svg">
<path fill-rule="evenodd" clip-rule="evenodd" d="M8.00011 6.11296C6.95625 6.11296 6.11344 6.95576 6.11344 7.99962C6.11344 8.33988 6.20273 8.65729 6.36031 8.93232L8.93281 6.35982C8.65777 6.20224 8.34036 6.11296 8.00011 6.11296ZM5.11344 7.99962C5.11344 6.40348 6.40397 5.11296 8.00011 5.11296C8.79865 5.11296 9.51751 5.43658 10.0403 5.9594C10.2356 6.15466 10.2356 6.47125 10.0403 6.66651L6.667 10.0398C6.47174 10.2351 6.15515 10.2351 5.95989 10.0398C5.43707 9.51702 5.11344 8.79816 5.11344 7.99962Z" fill="#8099B3"/>
<path fill-rule="evenodd" clip-rule="evenodd" d="M1.50505 6.00463C3.099 3.49905 5.43474 1.98665 8.00006 1.98665C9.49981 1.98665 10.937 2.50906 12.1812 3.44748C12.4016 3.61377 12.4455 3.92729 12.2792 4.14775C12.1129 4.36821 11.7994 4.41212 11.579 4.24583C10.4897 3.42425 9.26031 2.98665 8.00006 2.98665C5.85882 2.98665 3.80799 4.24745 2.3486 6.54168L2.34819 6.54234C2.1118 6.91268 1.97673 7.44282 1.97673 8.00332C1.97673 8.56382 2.1118 9.09396 2.34819 9.4643C2.8507 10.2531 3.4328 10.9287 4.05941 11.4676C4.26878 11.6476 4.29254 11.9633 4.11248 12.1727C3.93243 12.382 3.61674 12.4058 3.40737 12.2257C2.70065 11.618 2.05585 10.8666 1.50503 10.002C1.14158 9.43238 0.976725 8.70267 0.976725 8.00332C0.976725 7.30396 1.14159 6.57424 1.50505 6.00463Z" fill="#8099B3"/>
<path fill-rule="evenodd" clip-rule="evenodd" d="M13.0535 4.89654C13.2687 4.72347 13.5834 4.7576 13.7565 4.97277C14.0124 5.29095 14.2639 5.63285 14.4957 5.99824C14.8589 6.56773 15.0236 7.29711 15.0236 7.99615C15.0236 8.69551 14.8587 9.42523 14.4952 9.99484C12.9013 12.5004 10.5656 14.0128 8.00024 14.0128C7.10922 14.0128 6.23679 13.8244 5.41955 13.4803C5.16504 13.3731 5.0456 13.08 5.15276 12.8255C5.25992 12.571 5.5531 12.4515 5.8076 12.5587C6.51036 12.8546 7.25126 13.0128 8.00024 13.0128C10.1415 13.0128 12.1923 11.752 13.6517 9.45779L13.6521 9.45713C13.8885 9.08679 14.0236 8.55665 14.0236 7.99615C14.0236 7.43565 13.8885 6.90551 13.6521 6.53517L13.6514 6.53406C13.4433 6.20612 13.2147 5.89468 12.9773 5.59953C12.8042 5.38436 12.8384 5.06962 13.0535 4.89654Z" fill="#8099B3"/>
<path fill-rule="evenodd" clip-rule="evenodd" d="M10.4306 7.97485C10.7021 8.02492 10.8817 8.28567 10.8316 8.55723C10.6207 9.70113 9.69446 10.6273 8.55056 10.8383C8.27899 10.8883 8.01825 10.7088 7.96818 10.4372C7.9181 10.1657 8.09765 9.90493 8.36922 9.85485C9.10532 9.71912 9.71244 9.11199 9.84818 8.37589C9.89825 8.10433 10.159 7.92477 10.4306 7.97485Z" fill="#8099B3"/>
<path fill-rule="evenodd" clip-rule="evenodd" d="M6.66705 9.33297C6.86231 9.52823 6.86226 9.84458 6.667 10.0398L1.68705 15.0201C1.49179 15.2153 1.1752 15.2153 0.979943 15.0201C0.784681 14.8248 0.784681 14.5082 0.979943 14.313L5.95994 9.33297C6.15521 9.13771 6.47179 9.13771 6.66705 9.33297Z" fill="#8099B3"/>
<path fill-rule="evenodd" clip-rule="evenodd" d="M15.0206 0.979454C15.2158 1.17472 15.2158 1.4913 15.0206 1.68656L10.0403 6.66651C9.84507 6.86177 9.52872 6.86182 9.33346 6.66656C9.1382 6.4713 9.1382 6.15472 9.33346 5.95945L14.3135 0.979454C14.5087 0.784192 14.8253 0.784192 15.0206 0.979454Z" fill="#8099B3"/>
</svg>
