<svg width="16" height="14" viewBox="0 0 16 14" fill="none" xmlns="http://www.w3.org/2000/svg">
<path fill-rule="evenodd" clip-rule="evenodd" d="M7.99995 5.11296C6.95609 5.11296 6.11328 5.95576 6.11328 6.99962C6.11328 8.04348 6.95609 8.88629 7.99995 8.88629C9.04381 8.88629 9.88661 8.04348 9.88661 6.99962C9.88661 5.95576 9.04381 5.11296 7.99995 5.11296ZM5.11328 6.99962C5.11328 5.40348 6.40381 4.11296 7.99995 4.11296C9.59609 4.11296 10.8866 5.40348 10.8866 6.99962C10.8866 8.59577 9.59609 9.88629 7.99995 9.88629C6.40381 9.88629 5.11328 8.59577 5.11328 6.99962Z" fill="#8099B3"/>
<path fill-rule="evenodd" clip-rule="evenodd" d="M1.50489 4.99747C3.09884 2.49189 5.43458 0.979492 7.9999 0.979492C10.5653 0.979492 12.9012 2.49202 14.4951 4.9978C14.8584 5.56736 15.0232 6.29693 15.0232 6.99616C15.0232 7.69539 14.8584 8.42496 14.4951 8.99452C12.9012 11.5003 10.5653 13.0128 7.9999 13.0128C5.43446 13.0128 3.09863 11.5003 1.50468 8.99452C1.14137 8.42496 0.976562 7.69539 0.976562 6.99616C0.976562 6.2968 1.14143 5.56708 1.50489 4.99747ZM7.9999 1.97949C5.85866 1.97949 3.80783 3.24029 2.34844 5.53452L2.34802 5.53518C2.11163 5.90552 1.97656 6.43566 1.97656 6.99616C1.97656 7.55666 2.11163 8.0868 2.34802 8.45714L2.34844 8.4578C3.80783 10.752 5.85866 12.0128 7.9999 12.0128C10.1411 12.0128 12.192 10.752 13.6514 8.4578L13.6518 8.45714C13.8882 8.0868 14.0232 7.55666 14.0232 6.99616C14.0232 6.43566 13.8882 5.90552 13.6518 5.53518L13.6514 5.53452C12.192 3.24029 10.1411 1.97949 7.9999 1.97949Z" fill="#8099B3"/>
</svg>
