<svg width="22" height="22" viewBox="0 0 22 22" fill="none" xmlns="http://www.w3.org/2000/svg">
<path fill-rule="evenodd" clip-rule="evenodd" d="M10.75 0C4.83579 0 0 4.83579 0 10.75C0 16.6642 4.83579 21.5 10.75 21.5C16.6642 21.5 21.5 16.6642 21.5 10.75C21.5 4.83579 16.6642 0 10.75 0ZM1.5 10.75C1.5 5.66421 5.66421 1.5 10.75 1.5C15.8358 1.5 20 5.66421 20 10.75C20 15.8358 15.8358 20 10.75 20C5.66421 20 1.5 15.8358 1.5 10.75ZM9.83276 10.8082V13.2306H11.2672V11.8289C11.5799 11.768 11.8833 11.6614 12.1776 11.509C12.4718 11.3465 12.7339 11.1383 12.9638 10.8843C13.2029 10.6304 13.3914 10.3257 13.5293 9.97022C13.6764 9.60457 13.75 9.19321 13.75 8.73615C13.75 8.28924 13.681 7.88296 13.5431 7.51731C13.4052 7.1415 13.2075 6.82664 12.95 6.57271C12.6925 6.30863 12.3799 6.10549 12.0121 5.9633C11.6443 5.8211 11.2351 5.75 10.7845 5.75C10.3431 5.75 9.9523 5.8211 9.61207 5.9633C9.27184 6.09534 8.97759 6.27816 8.72931 6.51177C8.48103 6.73523 8.27414 6.99423 8.10862 7.28878C7.9523 7.58333 7.83276 7.88804 7.75 8.20291L9.06034 8.78186C9.16149 8.32479 9.35 7.94898 9.62586 7.65443C9.90172 7.35988 10.2695 7.2126 10.7293 7.2126C11.1615 7.2126 11.5063 7.34464 11.7638 7.60873C12.0213 7.86265 12.15 8.22322 12.15 8.69044V8.90374C12.15 9.51316 11.9477 9.9753 11.5431 10.2902C11.1477 10.5949 10.5776 10.7675 9.83276 10.8082ZM9.79138 16.4758C9.9569 16.6586 10.2144 16.75 10.5638 16.75C10.9132 16.75 11.1661 16.6586 11.3224 16.4758C11.4879 16.2828 11.5707 16.039 11.5707 15.7445V15.4855C11.5707 15.1909 11.4879 14.9522 11.3224 14.7694C11.1661 14.5764 10.9132 14.4799 10.5638 14.4799C10.2144 14.4799 9.9569 14.5764 9.79138 14.7694C9.63506 14.9522 9.5569 15.1909 9.5569 15.4855V15.7445C9.5569 16.039 9.63506 16.2828 9.79138 16.4758Z" fill="black"/>
<path fill-rule="evenodd" clip-rule="evenodd" d="M10.75 0C4.83579 0 0 4.83579 0 10.75C0 16.6642 4.83579 21.5 10.75 21.5C16.6642 21.5 21.5 16.6642 21.5 10.75C21.5 4.83579 16.6642 0 10.75 0ZM1.5 10.75C1.5 5.66421 5.66421 1.5 10.75 1.5C15.8358 1.5 20 5.66421 20 10.75C20 15.8358 15.8358 20 10.75 20C5.66421 20 1.5 15.8358 1.5 10.75ZM9.83276 10.8082V13.2306H11.2672V11.8289C11.5799 11.768 11.8833 11.6614 12.1776 11.509C12.4718 11.3465 12.7339 11.1383 12.9638 10.8843C13.2029 10.6304 13.3914 10.3257 13.5293 9.97022C13.6764 9.60457 13.75 9.19321 13.75 8.73615C13.75 8.28924 13.681 7.88296 13.5431 7.51731C13.4052 7.1415 13.2075 6.82664 12.95 6.57271C12.6925 6.30863 12.3799 6.10549 12.0121 5.9633C11.6443 5.8211 11.2351 5.75 10.7845 5.75C10.3431 5.75 9.9523 5.8211 9.61207 5.9633C9.27184 6.09534 8.97759 6.27816 8.72931 6.51177C8.48103 6.73523 8.27414 6.99423 8.10862 7.28878C7.9523 7.58333 7.83276 7.88804 7.75 8.20291L9.06034 8.78186C9.16149 8.32479 9.35 7.94898 9.62586 7.65443C9.90172 7.35988 10.2695 7.2126 10.7293 7.2126C11.1615 7.2126 11.5063 7.34464 11.7638 7.60873C12.0213 7.86265 12.15 8.22322 12.15 8.69044V8.90374C12.15 9.51316 11.9477 9.9753 11.5431 10.2902C11.1477 10.5949 10.5776 10.7675 9.83276 10.8082ZM9.79138 16.4758C9.9569 16.6586 10.2144 16.75 10.5638 16.75C10.9132 16.75 11.1661 16.6586 11.3224 16.4758C11.4879 16.2828 11.5707 16.039 11.5707 15.7445V15.4855C11.5707 15.1909 11.4879 14.9522 11.3224 14.7694C11.1661 14.5764 10.9132 14.4799 10.5638 14.4799C10.2144 14.4799 9.9569 14.5764 9.79138 14.7694C9.63506 14.9522 9.5569 15.1909 9.5569 15.4855V15.7445C9.5569 16.039 9.63506 16.2828 9.79138 16.4758Z" fill="black"/>
</svg>
