<svg width="20" height="20" viewBox="0 0 20 20" fill="none" xmlns="http://www.w3.org/2000/svg">
<path fill-rule="evenodd" clip-rule="evenodd" d="M5.12201 5.46967C5.41491 5.17678 5.88978 5.17678 6.18267 5.46967L10.0002 9.28717L13.8177 5.46967C14.1106 5.17678 14.5854 5.17678 14.8783 5.46967C15.1712 5.76256 15.1712 6.23744 14.8783 6.53033L11.0608 10.3478L14.8783 14.1653C15.1712 14.4582 15.1712 14.9331 14.8783 15.226C14.5854 15.5189 14.1106 15.5189 13.8177 15.226L10.0002 11.4085L6.18267 15.226C5.88978 15.5189 5.41491 15.5189 5.12201 15.226C4.82912 14.9331 4.82912 14.4582 5.12201 14.1653L8.93951 10.3478L5.12201 6.53033C4.82912 6.23744 4.82912 5.76256 5.12201 5.46967Z" fill="#8099B3"/>
</svg>
