<svg width="20" height="20" viewBox="0 0 20 20" fill="none" xmlns="http://www.w3.org/2000/svg">
<path fill-rule="evenodd" clip-rule="evenodd" d="M6.42455 3.52371C5.83391 4.25695 5.62533 5.32424 5.62533 6.66602V8.33268C5.62533 8.67786 5.3455 8.95768 5.00033 8.95768C4.65515 8.95768 4.37533 8.67786 4.37533 8.33268V6.66602C4.37533 5.24946 4.5834 3.81675 5.4511 2.73957C6.34231 1.63319 7.81002 1.04102 10.0003 1.04102C12.1906 1.04102 13.6583 1.63319 14.5496 2.73957C15.4172 3.81675 15.6253 5.24946 15.6253 6.66602V8.33268C15.6253 8.67786 15.3455 8.95768 15.0003 8.95768C14.6551 8.95768 14.3753 8.67786 14.3753 8.33268V6.66602C14.3753 5.32424 14.1667 4.25695 13.5761 3.52371C13.009 2.81967 11.9767 2.29102 10.0003 2.29102C8.02396 2.29102 6.99168 2.81967 6.42455 3.52371Z" fill="white"/>
<path fill-rule="evenodd" clip-rule="evenodd" d="M10.0003 11.8743C9.19491 11.8743 8.54199 12.5273 8.54199 13.3327C8.54199 14.1381 9.19491 14.791 10.0003 14.791C10.8057 14.791 11.4587 14.1381 11.4587 13.3327C11.4587 12.5273 10.8057 11.8743 10.0003 11.8743ZM7.29199 13.3327C7.29199 11.8369 8.50455 10.6243 10.0003 10.6243C11.4961 10.6243 12.7087 11.8369 12.7087 13.3327C12.7087 14.8285 11.4961 16.041 10.0003 16.041C8.50455 16.041 7.29199 14.8285 7.29199 13.3327Z" fill="white"/>
<path fill-rule="evenodd" clip-rule="evenodd" d="M2.94227 9.60796C2.51602 10.0342 2.29199 10.8282 2.29199 12.4993V14.166C2.29199 15.8371 2.51602 16.6312 2.94227 17.0574C3.36851 17.4837 4.16253 17.7077 5.83366 17.7077H14.167C15.8381 17.7077 16.6321 17.4837 17.0584 17.0574C17.4846 16.6312 17.7087 15.8371 17.7087 14.166V12.4993C17.7087 10.8282 17.4846 10.0342 17.0584 9.60796C16.6321 9.18171 15.8381 8.95768 14.167 8.95768H5.83366C4.16253 8.95768 3.36851 9.18171 2.94227 9.60796ZM2.05838 8.72407C2.88214 7.90032 4.17146 7.70768 5.83366 7.70768H14.167C15.8292 7.70768 17.1185 7.90032 17.9423 8.72407C18.766 9.54783 18.9587 10.8371 18.9587 12.4993V14.166C18.9587 15.8282 18.766 17.1175 17.9423 17.9413C17.1185 18.765 15.8292 18.9577 14.167 18.9577H5.83366C4.17146 18.9577 2.88214 18.765 2.05838 17.9413C1.23463 17.1175 1.04199 15.8282 1.04199 14.166V12.4993C1.04199 10.8371 1.23463 9.54783 2.05838 8.72407Z" fill="white"/>
</svg>
