<svg width="20" height="20" viewBox="0 0 20 20" fill="none" xmlns="http://www.w3.org/2000/svg">
<path fill-rule="evenodd" clip-rule="evenodd" d="M14.0908 7.47538C14.3349 7.2313 14.7306 7.2313 14.9747 7.47538L17.108 9.60871C17.3521 9.85279 17.3521 10.2485 17.108 10.4926L14.9747 12.6259C14.7306 12.87 14.3349 12.87 14.0908 12.6259C13.8467 12.3818 13.8467 11.9861 14.0908 11.742L15.7822 10.0507L14.0908 8.35926C13.8467 8.11518 13.8467 7.71945 14.0908 7.47538Z" fill="white"/>
<path fill-rule="evenodd" clip-rule="evenodd" d="M7.50781 10.0507C7.50781 9.70547 7.78763 9.42565 8.13281 9.42565H16.6078C16.953 9.42565 17.2328 9.70547 17.2328 10.0507C17.2328 10.3958 16.953 10.6757 16.6078 10.6757H8.13281C7.78763 10.6757 7.50781 10.3958 7.50781 10.0507Z" fill="white"/>
<path fill-rule="evenodd" clip-rule="evenodd" d="M5.51534 5.55796C4.44331 6.5763 3.75781 8.07434 3.75781 10.0007C3.75781 11.927 4.44331 13.425 5.51534 14.4433C6.59233 15.4664 8.09897 16.0423 9.79948 16.0423C10.1447 16.0423 10.4245 16.3221 10.4245 16.6673C10.4245 17.0125 10.1447 17.2923 9.79948 17.2923C7.81666 17.2923 5.98997 16.6183 4.65445 15.3496C3.31398 14.0763 2.50781 12.241 2.50781 10.0007C2.50781 7.76029 3.31398 5.925 4.65445 4.65167C5.98997 3.38305 7.81666 2.70898 9.79948 2.70898C10.1447 2.70898 10.4245 2.98881 10.4245 3.33398C10.4245 3.67916 10.1447 3.95898 9.79948 3.95898C8.09897 3.95898 6.59233 4.53492 5.51534 5.55796Z" fill="white"/>
</svg>
