<svg width="16" height="16" viewBox="0 0 16 16" fill="none" xmlns="http://www.w3.org/2000/svg">
<g clip-path="url(#clip0_216_9134)">
<path fill-rule="evenodd" clip-rule="evenodd" d="M10.7494 7.9999C10.7494 9.5183 9.51854 10.7492 8.00014 10.7492C6.48174 10.7492 5.25083 9.5183 5.25083 7.9999C5.25083 6.4815 6.48174 5.25059 8.00014 5.25059C9.51854 5.25059 10.7494 6.4815 10.7494 7.9999ZM9.74945 7.9999C9.74945 8.96601 8.96626 9.7492 8.00014 9.7492C7.03403 9.7492 6.25083 8.96601 6.25083 7.9999C6.25083 7.03378 7.03403 6.25059 8.00014 6.25059C8.96626 6.25059 9.74945 7.03378 9.74945 7.9999Z" fill="#8099B3"/>
<path fill-rule="evenodd" clip-rule="evenodd" d="M6.57175 1.64939C7.07354 0.3392 8.92714 0.3392 9.42893 1.64939C9.74268 2.46861 10.6797 2.85672 11.4808 2.4993C12.7621 1.92768 14.0728 3.23837 13.5011 4.51963C13.1437 5.32077 13.5318 6.25775 14.351 6.5715C15.6612 7.07329 15.6612 8.92689 14.351 9.42868C13.5318 9.74244 13.1437 10.6794 13.5011 11.4806C14.0728 12.7618 12.7621 14.0725 11.4808 13.5009C10.6797 13.1435 9.74268 13.5316 9.42893 14.3508C8.92714 15.661 7.07354 15.661 6.57175 14.3508C6.25799 13.5316 5.32101 13.1435 4.51988 13.5009C3.23861 14.0725 1.92792 12.7618 2.49955 11.4806C2.85697 10.6794 2.46885 9.74244 1.64963 9.42868C0.339444 8.92689 0.339445 7.07329 1.64964 6.5715C2.46885 6.25775 2.85697 5.32077 2.49955 4.51963C1.92792 3.23837 3.23861 1.92768 4.51988 2.4993C5.32101 2.85672 6.25799 2.46861 6.57175 1.64939ZM4.11245 3.41254C5.43727 4.0036 6.98675 3.36178 7.5056 2.00705C7.67938 1.55331 8.3213 1.55331 8.49507 2.00705C9.01392 3.36178 10.5634 4.0036 11.8882 3.41254C12.3319 3.21458 12.7859 3.66849 12.5879 4.1122C11.9968 5.43703 12.6386 6.98651 13.9934 7.50536C14.4471 7.67913 14.4471 8.32105 13.9934 8.49483C12.6386 9.01368 11.9968 10.5632 12.5879 11.888C12.7859 12.3317 12.3319 12.7856 11.8882 12.5876C10.5634 11.9966 9.01392 12.6384 8.49507 13.9931C8.3213 14.4469 7.67938 14.4469 7.5056 13.9931C6.98675 12.6384 5.43727 11.9966 4.11245 12.5876C3.66873 12.7856 3.21482 12.3317 3.41278 11.888C4.00384 10.5632 3.36203 9.01368 2.00729 8.49483C1.55356 8.32105 1.55356 7.67913 2.00729 7.50536C3.36203 6.98651 4.00384 5.43703 3.41278 4.1122C3.21482 3.66849 3.66873 3.21458 4.11245 3.41254Z" fill="#8099B3"/>
<path fill-rule="evenodd" clip-rule="evenodd" d="M10.7494 7.9999C10.7494 9.5183 9.51854 10.7492 8.00014 10.7492C6.48174 10.7492 5.25083 9.5183 5.25083 7.9999C5.25083 6.4815 6.48174 5.25059 8.00014 5.25059C9.51854 5.25059 10.7494 6.4815 10.7494 7.9999ZM9.74945 7.9999C9.74945 8.96601 8.96626 9.7492 8.00014 9.7492C7.03403 9.7492 6.25083 8.96601 6.25083 7.9999C6.25083 7.03378 7.03403 6.25059 8.00014 6.25059C8.96626 6.25059 9.74945 7.03378 9.74945 7.9999Z" fill="#8099B3"/>
<path fill-rule="evenodd" clip-rule="evenodd" d="M6.57175 1.64939C7.07354 0.3392 8.92714 0.3392 9.42893 1.64939C9.74268 2.46861 10.6797 2.85672 11.4808 2.4993C12.7621 1.92768 14.0728 3.23837 13.5011 4.51963C13.1437 5.32077 13.5318 6.25775 14.351 6.5715C15.6612 7.07329 15.6612 8.92689 14.351 9.42868C13.5318 9.74244 13.1437 10.6794 13.5011 11.4806C14.0728 12.7618 12.7621 14.0725 11.4808 13.5009C10.6797 13.1435 9.74268 13.5316 9.42893 14.3508C8.92714 15.661 7.07354 15.661 6.57175 14.3508C6.25799 13.5316 5.32101 13.1435 4.51988 13.5009C3.23861 14.0725 1.92792 12.7618 2.49955 11.4806C2.85697 10.6794 2.46885 9.74244 1.64963 9.42868C0.339444 8.92689 0.339445 7.07329 1.64964 6.5715C2.46885 6.25775 2.85697 5.32077 2.49955 4.51963C1.92792 3.23837 3.23861 1.92768 4.51988 2.4993C5.32101 2.85672 6.25799 2.46861 6.57175 1.64939ZM4.11245 3.41254C5.43727 4.0036 6.98675 3.36178 7.5056 2.00705C7.67938 1.55331 8.3213 1.55331 8.49507 2.00705C9.01392 3.36178 10.5634 4.0036 11.8882 3.41254C12.3319 3.21458 12.7859 3.66849 12.5879 4.1122C11.9968 5.43703 12.6386 6.98651 13.9934 7.50536C14.4471 7.67913 14.4471 8.32105 13.9934 8.49483C12.6386 9.01368 11.9968 10.5632 12.5879 11.888C12.7859 12.3317 12.3319 12.7856 11.8882 12.5876C10.5634 11.9966 9.01392 12.6384 8.49507 13.9931C8.3213 14.4469 7.67938 14.4469 7.5056 13.9931C6.98675 12.6384 5.43727 11.9966 4.11245 12.5876C3.66873 12.7856 3.21482 12.3317 3.41278 11.888C4.00384 10.5632 3.36203 9.01368 2.00729 8.49483C1.55356 8.32105 1.55356 7.67913 2.00729 7.50536C3.36203 6.98651 4.00384 5.43703 3.41278 4.1122C3.21482 3.66849 3.66873 3.21458 4.11245 3.41254Z" fill="#8099B3"/>
</g>
<defs>
<clipPath id="clip0_216_9134">
<rect width="16" height="16" fill="white"/>
</clipPath>
</defs>
</svg>
