<svg width="16" height="16" viewBox="0 0 16 16" fill="none" xmlns="http://www.w3.org/2000/svg">
<path fill-rule="evenodd" clip-rule="evenodd" d="M3.31052 3.35602C4.64689 3.22106 5.98341 3.15356 7.32004 3.15356C9.56362 3.15356 11.8134 3.26776 14.0493 3.48934C14.3241 3.51657 14.5248 3.76141 14.4976 4.03621C14.4704 4.311 14.2255 4.51169 13.9507 4.48446C11.7467 4.26604 9.52979 4.15356 7.32004 4.15356C6.0169 4.15356 4.71367 4.21938 3.41029 4.35103L3.40882 4.35118L2.04882 4.48451C1.774 4.51146 1.52937 4.31051 1.50242 4.03568C1.47548 3.76086 1.67643 3.51623 1.95125 3.48928L3.31052 3.35602Z" fill="#0080A8"/>
<path fill-rule="evenodd" clip-rule="evenodd" d="M6.30647 2.52296L6.15984 3.39606C6.11411 3.66839 5.85626 3.85208 5.58394 3.80635C5.31161 3.76061 5.12792 3.50277 5.17365 3.23044L5.32032 2.35711C5.32288 2.3419 5.32552 2.32597 5.32819 2.30983C5.37409 2.03258 5.44144 1.62583 5.71257 1.31838C6.02861 0.959997 6.51081 0.833252 7.12675 0.833252H8.87341C9.49684 0.833252 9.97856 0.970185 10.2927 1.33222C10.5642 1.64509 10.6299 2.05329 10.6737 2.32586C10.6759 2.33912 10.6779 2.35206 10.68 2.36466L10.8264 3.22982C10.8725 3.50209 10.6891 3.76017 10.4168 3.80624C10.1446 3.85232 9.8865 3.66895 9.84042 3.39668L9.69325 2.52705C9.63749 2.18503 9.60221 2.06226 9.53744 1.98762C9.5016 1.94632 9.37665 1.83325 8.87341 1.83325H7.12675C6.61601 1.83325 6.49488 1.94317 6.46259 1.97979C6.40118 2.04943 6.36652 2.16643 6.30647 2.52296Z" fill="#0080A8"/>
<path fill-rule="evenodd" clip-rule="evenodd" d="M12.5985 5.59407C12.8741 5.61186 13.083 5.84967 13.0653 6.12524L12.6317 12.8413L12.6309 12.854C12.6133 13.1048 12.594 13.3806 12.5423 13.6373C12.4887 13.9034 12.3942 14.1842 12.2028 14.4334C11.802 14.9552 11.12 15.1664 10.1396 15.1664H5.85963C4.87925 15.1664 4.19721 14.9552 3.79643 14.4334C3.60503 14.1842 3.51056 13.9034 3.45697 13.6373C3.40528 13.3806 3.38597 13.1048 3.3684 12.854L3.36733 12.8386L2.934 6.12524C2.91621 5.84967 3.12518 5.61186 3.40075 5.59407C3.67632 5.57629 3.91413 5.78526 3.93192 6.06083L4.36507 12.7714L4.36517 12.7728C4.38398 13.0413 4.39991 13.2542 4.43729 13.4398C4.47369 13.6206 4.52423 13.7393 4.58949 13.8243C4.70204 13.9708 4.98 14.1664 5.85963 14.1664H10.1396C11.0193 14.1664 11.2972 13.9708 11.4098 13.8243C11.475 13.7393 11.5256 13.6206 11.562 13.4398C11.5993 13.2542 11.6153 13.0413 11.6341 12.7728L11.6342 12.7714L12.0673 6.06083C12.0851 5.78526 12.3229 5.57629 12.5985 5.59407Z" fill="#0080A8"/>
<path fill-rule="evenodd" clip-rule="evenodd" d="M6.38672 10.9999C6.38672 10.7238 6.61058 10.4999 6.88672 10.4999H9.10672C9.38286 10.4999 9.60672 10.7238 9.60672 10.9999C9.60672 11.2761 9.38286 11.4999 9.10672 11.4999H6.88672C6.61058 11.4999 6.38672 11.2761 6.38672 10.9999Z" fill="#0080A8"/>
<path fill-rule="evenodd" clip-rule="evenodd" d="M5.83333 8.33325C5.83333 8.05711 6.05719 7.83325 6.33333 7.83325H9.66667C9.94281 7.83325 10.1667 8.05711 10.1667 8.33325C10.1667 8.60939 9.94281 8.83325 9.66667 8.83325H6.33333C6.05719 8.83325 5.83333 8.60939 5.83333 8.33325Z" fill="#0080A8"/>
</svg>
